<svg id="Layer_1" data-name="Layer 1" xmlns="http://www.w3.org/2000/svg" xmlns:xlink="http://www.w3.org/1999/xlink" viewBox="0 0 2398.74 2945.68"><defs><style>.cls-1{fill:none;}.cls-2{fill:#ecf2fa;}.cls-3{fill:#425fec;}.cls-12,.cls-4{fill:#390d9f;}.cls-4{fill-rule:evenodd;}.cls-5{fill:#101c3a;}.cls-6{fill:#fc721a;}.cls-7{clip-path:url(#clip-path);}.cls-8{fill:#fff;}.cls-9{fill:#7109b5;}.cls-10{fill:#3e36c7;}.cls-11{fill:#9379ba;}.cls-13{fill:#ebf1fd;}.cls-14{fill:#5987d3;}.cls-15{fill:#f8a3a2;}.cls-16{fill:#d17f80;}</style><clipPath id="clip-path" transform="translate(-797.76 -403.05)"><polygon class="cls-1" points="1064.99 701.47 2291.1 714.5 3027.38 1398.52 3215.71 1675.04 3027.38 2454.88 759.17 2454.88 778.71 1785.55 1064.99 701.47"/></clipPath></defs><path class="cls-2" d="M2755.41,1916.11c-160.59,44.51-463.93,354.71-275.84,500.2S3229.47,1784.71,2755.41,1916.11Z" transform="translate(-797.76 -403.05)"/><path class="cls-3" d="M2225.55,442.68l30.58-25.07h0l-1.45-2a36.32,36.32,0,0,0-7.73-7.06,35.89,35.89,0,0,0-13.27-5.52Z" transform="translate(-797.76 -403.05)"/><polygon class="cls-4" points="2168.39 542.76 2106.83 443.1 2223.92 439.62 2168.39 542.76"/><path class="cls-5" d="M2960.52,924.11,2896.82,821,3018,817.37ZM2901,823.2l59.4,96.19,53.6-99.54Z" transform="translate(-797.76 -403.05)"/><rect class="cls-6" x="1326.29" y="448.03" width="92.4" height="92.4" transform="translate(-175.53 1342.22) rotate(-78.85)"/><path class="cls-5" d="M1431.8,541.59l-92.26-18.18,18.18-92.25L1450,449.34Zm-90.35-19.46,89.06,17.55,17.55-89.06L1359,433.07Z" transform="translate(-797.76 -403.05)"/><g class="cls-7"><path class="cls-5" d="M3035.07,1859.29a11.1,11.1,0,0,1-9-17.58l86.09-144.54H2672.35l-116.48,158.44a11.08,11.08,0,1,1-16.49-14.81l119.78-162.1a11.1,11.1,0,0,1,8.24-3.66h466.47a11.05,11.05,0,0,1,9,17.56l-98.8,162.1A11.07,11.07,0,0,1,3035.07,1859.29Z" transform="translate(-797.76 -403.05)"/><path class="cls-5" d="M3176.19,1706.43H2640.72a20.31,20.31,0,0,1-20.3-20.32h0a20.31,20.31,0,0,1,20.3-20.32h535.47a20.33,20.33,0,0,1,20.31,20.32h0A20.33,20.33,0,0,1,3176.19,1706.43Z" transform="translate(-797.76 -403.05)"/><path class="cls-5" d="M1912.44,2018.09a11.1,11.1,0,0,1-2.67-21.86l635.16-158.78a12.21,12.21,0,0,1,2.69-.32h487.46a11.08,11.08,0,0,1,0,22.15H2549l-633.86,158.47A11.33,11.33,0,0,1,1912.44,2018.09Z" transform="translate(-797.76 -403.05)"/><path class="cls-8" d="M2595.5,1818.15c9.77-30.36,47.77-107.9,92-85.48,44.92,22.79,57.8,113.09,61.08,159.37l-6.92,1c-3.45-45.38-16.6-132.21-57.41-153.87-36.59-19.42-74.26,54.53-82.87,81.08-15.3,47.12-18,100.11-18,101a3.38,3.38,0,0,1-3.29,3.16,2.91,2.91,0,0,1-3-3.12C2577.27,1917.75,2580.27,1865.49,2595.5,1818.15Z" transform="translate(-797.76 -403.05)"/><polygon class="cls-5" points="2115.6 1476.08 2129.66 1917.03 2138.72 1967.61 1967.63 1967.49 2021.33 1463.8 2063.7 1474.53 2115.6 1476.08"/><polygon class="cls-9" points="2021.33 1463.8 2003.09 1898.75 1967.63 1967.49 1587.12 1967.22 1619.46 1881.88 1651.88 1501.53 2021.33 1463.8"/><polygon class="cls-10" points="2067.01 1474.14 2063.68 1953.37 1967.63 1967.49 2003.09 1898.75 2021.33 1463.8 2067.01 1474.14"/><path class="cls-5" d="M2552.57,1922.43c.07,6.14-4.59,11.27-10.42,11.46a10.61,10.61,0,0,1-10.72-10.75c-.1-6.14,4.55-11.29,10.41-11.49A10.61,10.61,0,0,1,2552.57,1922.43Z" transform="translate(-797.76 -403.05)"/><path class="cls-5" d="M2735.85,1913.05c-.17,7.67-6.27,14.08-13.63,14.33s-13.2-5.76-13.07-13.42,6.21-14.14,13.6-14.4S2736,1905.34,2735.85,1913.05Z" transform="translate(-797.76 -403.05)"/><path class="cls-8" d="M2556.25,1826.48c7.67-31.51,17.76-73.17,46.39-93.38,16.4-11.59,37.81-7.85,59.18,4.24,55.86,31.6,63.85,168.45,64.16,174.26a2.9,2.9,0,0,1-2.95,3.11,3.37,3.37,0,0,1-3.29-3.16c-.07-1.38-8.09-139.07-60.7-168.78-19.29-10.89-38.88-14.83-53-4-28.17,21.55-41.92,79-43,84.29-10.39,50-17.9,99.85-17.94,100.71a3.37,3.37,0,0,1-3.3,3.15,2.9,2.9,0,0,1-2.95-3.12C2539,1920.24,2544.18,1876.08,2556.25,1826.48Z" transform="translate(-797.76 -403.05)"/><path class="cls-11" d="M2523.22,2142.6a87.08,87.08,0,0,0,2,11.93c11.33,46.06,56.85,74.44,101.68,63.41a81.67,81.67,0,0,0,13.26-4.59Z" transform="translate(-797.76 -403.05)"/><path class="cls-8" d="M2392.09,1892.77c-37-18.63-68.59,46.34-76.67,71.76-12.6,39.64-15,83.37-15.11,86.32a2.44,2.44,0,0,0,2.48,2.6,2.81,2.81,0,0,0,2.74-2.65c0-.72,2.13-45,14.78-84.5,7.13-22.22,38.42-84.19,69.08-68.06,34.2,18,45.45,90.59,48.47,128.54l5.79-.9C2440.77,1987.19,2429.73,1911.69,2392.09,1892.77Z" transform="translate(-797.76 -403.05)"/><polygon class="cls-5" points="1758.42 1601.41 1714.53 1961.41 1857.64 1961.01 1849.91 1918.72 1837.31 1611.4 1793.9 1610.26 1758.42 1601.41"/><polygon class="cls-12" points="1315.86 1891.12 1289.06 1962.6 1714.53 1961.41 1743.98 1903.81 1758.42 1601.41 1342.31 1634.35 1315.86 1891.12"/><polygon class="cls-10" points="1743.98 1903.81 1714.53 1961.41 1794.84 1949.31 1796.66 1609.92 1758.42 1601.41 1743.98 1903.81"/><path class="cls-5" d="M2270.8,2041.15c-4.89.26-8.76,6.37-8.66,13.64s4.14,12.93,9,12.68,8.76-6.32,8.67-13.59S2275.69,2040.89,2270.8,2041.15Z" transform="translate(-797.76 -403.05)"/><path class="cls-5" d="M2422.07,2026.27c-6.18.33-11.24,8-11.32,17.08s4.84,16.15,11,15.84,11.24-7.91,11.34-17S2428.25,2025.94,2422.07,2026.27Z" transform="translate(-797.76 -403.05)"/><path class="cls-8" d="M2321.14,1893.37c-23.89,17-32.2,51.86-38.52,78.24-10,41.53-14.16,78.47-14.31,81.46a2.43,2.43,0,0,0,2.47,2.59,2.83,2.83,0,0,0,2.75-2.65c0-.71,6.17-42.47,14.71-84.29.9-4.4,12.24-52.51,35.73-70.61,11.81-9.11,28.21-5.87,44.38,3.19,44.08,24.69,51.19,139.83,51.26,141a2.8,2.8,0,0,0,2.77,2.63,2.42,2.42,0,0,0,2.45-2.61c-.28-4.86-7.36-119.3-54.18-145.56C2352.75,1886.7,2334.82,1883.63,2321.14,1893.37Z" transform="translate(-797.76 -403.05)"/><polygon class="cls-5" points="1604.56 1960.92 1497.07 1961.42 1495.68 1747.84 1603.22 1758.41 1604.56 1960.92"/><polygon class="cls-3" points="1497.07 1961.42 1181.26 1962.6 1179.96 1753.02 1495.68 1748.56 1497.07 1961.42"/><polygon class="cls-5" points="1383.33 1961.96 1282.29 1962.13 1282.04 1908.97 1383.08 1908.8 1383.33 1961.96"/><polygon class="cls-8" points="1573.48 1961.06 1538.07 1961.23 1536.85 1766.59 1572.27 1770.38 1573.48 1961.06"/><polygon class="cls-8" points="1260.17 1805.86 1199.83 1806.14 1199.65 1768.42 1259.97 1763.42 1260.17 1805.86"/><path class="cls-5" d="M2946.45,2387.36h-1034a11.08,11.08,0,0,1-11.07-11.09V2007a11.07,11.07,0,0,1,11.07-11.08h390.26l730-158.55A11.07,11.07,0,0,1,3046,1850l-88.63,528.07A11.07,11.07,0,0,1,2946.45,2387.36ZM1923.53,2365.2H2937.08l84.35-502.7-715.18,155.33a10.94,10.94,0,0,1-2.34.24H1923.53Z" transform="translate(-797.76 -403.05)"/><path class="cls-5" d="M2303.91,2387.36a11.07,11.07,0,0,1-11.07-11.09V2007a11.08,11.08,0,1,1,22.15,0v369.27A11.09,11.09,0,0,1,2303.91,2387.36Z" transform="translate(-797.76 -403.05)"/><path class="cls-5" d="M2038,2381.82a5.55,5.55,0,0,1-5.53-5.55V2007a5.54,5.54,0,1,1,11.07,0v369.27A5.54,5.54,0,0,1,2038,2381.82Z" transform="translate(-797.76 -403.05)"/><path class="cls-5" d="M2171,2381.82a5.54,5.54,0,0,1-5.54-5.55V2007a5.54,5.54,0,1,1,11.07,0v369.27A5.53,5.53,0,0,1,2171,2381.82Z" transform="translate(-797.76 -403.05)"/><path class="cls-5" d="M2436.83,2381.82a5.55,5.55,0,0,1-5.53-5.55V1981.15a5.53,5.53,0,1,1,11.06,0v395.12A5.53,5.53,0,0,1,2436.83,2381.82Z" transform="translate(-797.76 -403.05)"/><path class="cls-5" d="M2569.78,2381.82a5.54,5.54,0,0,1-5.53-5.55V1951.59a5.53,5.53,0,1,1,11.06,0v424.68A5.53,5.53,0,0,1,2569.78,2381.82Z" transform="translate(-797.76 -403.05)"/><path class="cls-5" d="M2702.72,2381.82a5.53,5.53,0,0,1-5.53-5.55V1921.84a5.54,5.54,0,1,1,11.07,0v454.43A5.54,5.54,0,0,1,2702.72,2381.82Z" transform="translate(-797.76 -403.05)"/><path class="cls-5" d="M2835.66,2381.82a5.54,5.54,0,0,1-5.53-5.55V1892.7a5.54,5.54,0,0,1,11.07,0v483.57A5.54,5.54,0,0,1,2835.66,2381.82Z" transform="translate(-797.76 -403.05)"/><path class="cls-5" d="M2968.61,2239.64a5.54,5.54,0,0,1-5.54-5.53V1862.64a5.54,5.54,0,0,1,11.07,0v371.47A5.54,5.54,0,0,1,2968.61,2239.64Z" transform="translate(-797.76 -403.05)"/><path class="cls-5" d="M2987,2140H1921.67a5.54,5.54,0,1,1,0-11.07H2987a5.54,5.54,0,0,1,0,11.07Z" transform="translate(-797.76 -403.05)"/><path class="cls-5" d="M3006.88,2021.77h-703a5.54,5.54,0,1,1,0-11.08h703a5.54,5.54,0,1,1,0,11.08Z" transform="translate(-797.76 -403.05)"/><path class="cls-5" d="M2963.11,2267.51H1921.67a5.54,5.54,0,1,1,0-11.07H2963.11a5.54,5.54,0,0,1,0,11.07Z" transform="translate(-797.76 -403.05)"/><path class="cls-5" d="M3018.48,2801c-.34,0-.66,0-1-.05a11.05,11.05,0,0,1-10.05-12l16.13-181-130.76-120a11.1,11.1,0,0,1-2.62-12.68l46.16-103.4a11.08,11.08,0,0,1,20.23,9l-42.91,96.12,128.91,118.31a11.07,11.07,0,0,1,3.55,9.15l-16.62,186.5A11.1,11.1,0,0,1,3018.48,2801Z" transform="translate(-797.76 -403.05)"/><path class="cls-5" d="M2789.93,2801c-.33,0-.66,0-1-.05a11.05,11.05,0,0,1-10.05-12l16.14-181-130.76-120a11.06,11.06,0,0,1-2.63-12.68l46.16-103.4a11.07,11.07,0,0,1,20.22,9l-42.91,96.12L2814,2595.22a11.09,11.09,0,0,1,3.54,9.15L2801,2790.87A11.09,11.09,0,0,1,2789.93,2801Z" transform="translate(-797.76 -403.05)"/><path class="cls-5" d="M2900.29,2490.75H2671.75a11.08,11.08,0,0,1,0-22.16h228.54a11.08,11.08,0,0,1,0,22.16Z" transform="translate(-797.76 -403.05)"/><path class="cls-5" d="M3035.08,2614.45H2806.54a11.07,11.07,0,1,1,0-22.13h228.54a11.07,11.07,0,1,1,0,22.13Z" transform="translate(-797.76 -403.05)"/><path class="cls-5" d="M2176.19,890.1l253.55,1804.09c10.63,75.65-42.26,137.18-118,137.18H1950.93l0-.24H1495.55c-30-1.76-58.72-13-82.91-30.78-34.3-25.13-59.36-63.42-65.36-106.16L1093.73,890.1c-10.63-75.63,42.32-137.17,118-137.17h808C2095.37,752.93,2165.56,814.47,2176.19,890.1Z" transform="translate(-797.76 -403.05)"/><path class="cls-5" d="M2228.41,890.1,2482,2694.19c10.62,75.65-42.27,137.18-118,137.18H2003.16l0-.24H1547.78c-30-1.76-58.73-13-82.91-30.78-34.31-25.13-59.37-63.42-65.37-106.16L1146,890.1c-10.63-75.63,42.32-137.17,118-137.17h808C2147.6,752.93,2217.79,814.47,2228.41,890.1Z" transform="translate(-797.76 -403.05)"/><path class="cls-13" d="M2197.94,890.09l253.54,1804.12c8.29,58.91-32.77,106.69-91.74,106.69h-808c-58.91,0-113.4-47.78-121.68-106.69L1176.5,890.09c-8.28-58.92,32.78-106.69,91.69-106.69h808C2135.17,783.4,2189.66,831.17,2197.94,890.09Z" transform="translate(-797.76 -403.05)"/><path class="cls-5" d="M1802,801.18H1550.4a8.62,8.62,0,0,0-8.73,10.16,12.08,12.08,0,0,0,11.59,10.16h251.55a8.62,8.62,0,0,0,8.74-10.16A12.09,12.09,0,0,0,1802,801.18Z" transform="translate(-797.76 -403.05)"/><polygon class="cls-5" points="512.63 513.12 507.76 508.85 536.73 475.14 541.6 479.41 512.63 513.12"/><polygon class="cls-5" points="542.07 513.12 503.63 479.41 507.3 475.14 545.74 508.85 542.07 513.12"/><polygon class="cls-5" points="1307.36 508.27 1253.29 508.27 1252.45 502.23 1306.52 502.23 1307.36 508.27"/><path class="cls-3" d="M2391.65,893.36H2234.2l-209.51-143.6H2139c11.31,0,22.68,4.3,30.46,11.51Z" transform="translate(-797.76 -403.05)"/><polygon class="cls-5" points="1226.93 346.71 1094.63 346.71 1278.99 490.31 1436.44 490.31 1226.93 346.71"/><polygon class="cls-3" points="1278.99 490.31 1121.54 490.31 941.72 346.71 1094.63 346.71 1278.99 490.31"/><path class="cls-3" d="M2401.41,947.42c6.29,34.8-26,62.82-71.48,61.17-42.62-1.55-80.32-29.92-86.28-62.9l-9.45-52.33h157.45Z" transform="translate(-797.76 -403.05)"/><path class="cls-5" d="M2244.64,951.16c5.74,31.76-22.71,57.5-63.53,57.5h-9.61c-40.82,0-78.57-25.74-84.31-57.5l-10.44-57.8H2234.2Z" transform="translate(-797.76 -403.05)"/><path class="cls-3" d="M2087.19,951.16c5.74,31.76-22.7,57.5-63.52,57.5h-9.62c-40.82,0-78.57-25.74-84.31-57.5l-10.44-57.8h157.45Z" transform="translate(-797.76 -403.05)"/><path class="cls-3" d="M1289.84,893.36h157.45l-152-143.6H1165.74c-11.31,0-27.32,10-1.41,33.37Z" transform="translate(-797.76 -403.05)"/><polygon class="cls-5" points="497.53 346.71 649.52 490.31 806.97 490.31 656.27 346.71 497.53 346.71"/><polygon class="cls-3" points="806.97 490.31 964.42 490.31 796.68 346.71 656.27 346.71 806.97 490.31"/><polygon class="cls-5" points="941.72 346.71 796.68 346.71 964.42 490.31 1121.87 490.31 941.72 346.71"/><path class="cls-3" d="M1299.61,947.42c6.28,34.8,48.67,62.82,93.58,61.17,42.06-1.55,69.51-29.92,63.55-62.9l-9.45-52.33H1289.84Z" transform="translate(-797.76 -403.05)"/><path class="cls-5" d="M1457.73,951.16c5.74,31.76,43.48,57.5,84.3,57.5h9.62c40.82,0,69.26-25.74,63.53-57.5l-10.45-57.8H1447.29Z" transform="translate(-797.76 -403.05)"/><path class="cls-3" d="M1615.18,951.16c5.73,31.76,43.48,57.5,84.3,57.5h9.62c40.82,0,69.26-25.75,63.52-57.5l-10.44-57.8H1604.73Z" transform="translate(-797.76 -403.05)"/><path class="cls-5" d="M1772.62,951.16c5.74,31.76,43.49,57.5,84.31,57.5h9.61c40.83,0,69.27-25.74,63.53-57.5l-10.44-57.8H1762.18Z" transform="translate(-797.76 -403.05)"/><path class="cls-8" d="M1381.53,1848.41c15.89-30.52,46.58-118.49-4.15-135.4-51.56-17.19-130.62,41.4-168.62,74l4.45,6.09c37.45-31.76,114-87.52,161.62-72.63,42.65,13.35,14.46,98.33.63,125.09-24.56,47.47-63.19,89.71-63.81,90.39a3.63,3.63,0,0,0,.08,4.93,3.13,3.13,0,0,0,4.62-.11C1318.92,1937.93,1356.76,1896,1381.53,1848.41Z" transform="translate(-797.76 -403.05)"/><polygon class="cls-5" points="247.28 1198.53 45.69 1376.23 0 1407.64 129.84 1538.84 328.2 1261.56 287.83 1237.18 247.28 1198.53"/><polygon class="cls-12" points="328.2 1261.56 155.71 1459.49 129.84 1538.84 515.89 1928.92 556.86 1839.38 676.69 1671.98 328.2 1261.56"/><polygon class="cls-10" points="285.63 1234.35 67.83 1454.42 129.84 1538.84 155.71 1459.49 328.2 1261.56 285.63 1234.35"/><path class="cls-5" d="M1332.23,1962.25c-6.73,6.53-8.75,15.61-4.54,20.3s13.07,3.2,19.79-3.31,8.82-15.62,4.6-20.33S1339,1955.71,1332.23,1962.25Z" transform="translate(-797.76 -403.05)"/><path class="cls-5" d="M1203.47,1811.49c-8.21,8.37-10.54,19.93-5.23,25.84s16.26,4,24.48-4.36,10.64-20,5.32-25.89S1211.71,1803.11,1203.47,1811.49Z" transform="translate(-797.76 -403.05)"/><path class="cls-8" d="M1404.9,1884.85c18.37-29.79,42.68-69.11,36.49-106.42-3.55-21.38-22.66-35-48.14-42.2-66.61-18.9-177.69,78.75-182.39,82.92a3.13,3.13,0,0,0-.14,4.62,3.62,3.62,0,0,0,4.91.13c1.12-1,112.86-99.27,175.56-81.42,23,6.54,40.86,18.59,43.29,37.66,4.83,38-28.84,92.09-32,96.93-30.46,45.85-63,89.46-63.68,90.15a3.63,3.63,0,0,0,.08,4.91,3.14,3.14,0,0,0,4.63-.09C1346,1969.19,1376,1931.72,1404.9,1884.85Z" transform="translate(-797.76 -403.05)"/><path class="cls-8" d="M1443.18,1885c5.77-33.91,8-127.06-45.44-127.61-54.35-.55-111.65,79.45-137.83,122.11L1266,1884c25.9-41.71,81.73-118.26,131.57-118.67,44.69-.36,43.91,89.17,38.94,118.87-8.83,52.72-32.65,104.77-33,105.61a3.64,3.64,0,0,0,1.58,4.66,3.14,3.14,0,0,0,4.37-1.52C1411,1989.45,1434.19,1937.94,1443.18,1885Z" transform="translate(-797.76 -403.05)"/><polygon class="cls-5" points="310.84 1382.06 77.8 1797.08 43.93 1840.97 207.73 1926.06 407.18 1417.26 361.28 1406.42 310.84 1382.06"/><polygon class="cls-3" points="407.18 1417.26 208.03 1842.61 207.73 1926.06 572.03 2115.3 583.59 2017.52 741.97 1637.35 407.18 1417.26"/><polygon class="cls-10" points="358.32 1404.4 122.83 1864.71 207.73 1926.06 208.03 1842.61 407.18 1417.26 358.32 1404.4"/><path class="cls-5" d="M1432.34,2006.22c-3.13,5.85-1.22,13.08,4.27,16.16s12.46.87,15.61-5,1.26-13.07-4.24-16.17S1435.48,2000.38,1432.34,2006.22Z" transform="translate(-797.76 -403.05)"/><path class="cls-5" d="M1261.6,1906c-3.66,7.42-1,16.59,5.91,20.49s15.5,1.07,19.2-6.33,1.09-16.62-5.85-20.54S1265.28,1898.52,1261.6,1906Z" transform="translate(-797.76 -403.05)"/><path class="cls-8" d="M1476.6,1912.56c8.35-34,19.44-78.86,2.11-112.47-9.93-19.26-32.28-26.34-58.76-25.41-69.19,2.42-145,129.42-148.19,134.82A3.14,3.14,0,0,0,1273,1914a3.63,3.63,0,0,0,4.72-1.39c.76-1.28,77-129.07,142.15-131.3,23.89-.82,44.6,5.16,52.75,22.57,16.23,34.66.77,96.5-.8,102.09-14.94,53-32.6,104.48-33,105.33a3.61,3.61,0,0,0,1.59,4.65,3.12,3.12,0,0,0,4.37-1.51C1446.42,2010.89,1463.45,1966.05,1476.6,1912.56Z" transform="translate(-797.76 -403.05)"/><path class="cls-3" d="M2196.28,1338.05c-72.45-58-230.91-110.4-420.93-83.59s-258,89.9-267.2,142.48,26.95,135.45,215,148.66,285.45-7.52,333.43-24.23S2239.82,1372.88,2196.28,1338.05Z" transform="translate(-797.76 -403.05)"/><path class="cls-14" d="M1552,2797.26s-70.38,45.17-89.29,116.59-25.21,182.78-66.18,183.83-37.29-2.1-37.29-2.1-55.54-173.32-38.73-313,21.4-205.88,54-215.33,171.21,0,190.12-16.8S1607.67,2760.49,1552,2797.26Z" transform="translate(-797.76 -403.05)"/><path class="cls-8" d="M1361,2780.4c14-122.78,19.57-191.55,40-216.7-11.34.75-20.61,1.83-26.44,3.52-32.57,9.45-37.16,75.63-54,215.33s38.73,313,38.73,313-3.63,3.13,37,2.1C1384.35,3054.67,1346.72,2904.88,1361,2780.4Z" transform="translate(-797.76 -403.05)"/><path class="cls-5" d="M2318.54,1866.6c45.63,180.61,67.61,578.54-169.39,739.49-195.15,132.52-518.37,294.11-562.49,318.27,0,0-139.18-139.71-74.05-375,0,0,411.72-150.12,463.23-232.4,23.91-38.2,28.36-226.1,29.93-371.06S2286.39,1739.38,2318.54,1866.6Z" transform="translate(-797.76 -403.05)"/><path class="cls-5" d="M1937.5,1705.88c-23.11,31.51-106.62,128.94-68.81,374.73s276.79,1020.22,367.12,1268.12c0,0,25.22-422.27,283.62-342.44,0,0-147.06-535.71-176.47-626s-189.08-552.52-241.6-596.64S1972.3,1658.41,1937.5,1705.88Z" transform="translate(-797.76 -403.05)"/><path class="cls-8" d="M2243.82,3149.54l22.6-8.14c-2.71-7.51-271.24-754.11-318.83-1004.47-46.51-244.7,8.25-334.92,8.81-335.8l-20.17-13c-2.51,3.85-60.9,97.33-12.24,353.33C1971.93,2393.63,2241.1,3142,2243.82,3149.54Z" transform="translate(-797.76 -403.05)"/><path class="cls-3" d="M2218,1303.05c20.24,2.77,67.49,8.94,98.47,23.12s44.38,22.83,53.84,148.88-21,403.9-7.35,504.74c0,0-81.94-15.76-115.55,13.65s-160-3.51-245.8-41S1856.09,1860,1856.09,1860s94-408.1,135-479.53S2104.64,1287.56,2218,1303.05Z" transform="translate(-797.76 -403.05)"/><path class="cls-8" d="M2167.72,1882.21c32,0,50.07-11.56,51.23-12.32l-3.3-5c-.42.27-42.75,27-112.69-3.39l-2.4,5.51C2127,1878.49,2149.6,1882.21,2167.72,1882.21Z" transform="translate(-797.76 -403.05)"/><path class="cls-15" d="M2123.72,1249.08l.16,78.18c4.78,6,37.69,23,95.64.34l-.24-109.71S2183.11,1232.64,2123.72,1249.08Z" transform="translate(-797.76 -403.05)"/><path class="cls-5" d="M2123.72,1258.62l.14-40.73S2160,1235,2219.41,1254l.11,59.17C2217.75,1313.55,2152.49,1323.15,2123.72,1258.62Z" transform="translate(-797.76 -403.05)"/><path class="cls-15" d="M2197.87,1292.16c-27.52-.25-77.63-37.83-88.7-63-4-9-1.79-32.21-1.76-44.27.09-43.4,23.74-68.75,51.77-78.58,11.81-4.11,49.61-3.2,60.46-.93,35.78,7.57,41,42.08,41.1,78.61C2260.91,1225,2246.38,1292.61,2197.87,1292.16Z" transform="translate(-797.76 -403.05)"/><path class="cls-5" d="M2219.67,1227.28l-1.56-5.8c7.64-2.06,16.52-6.14,17.51-9.13.06-.21.18-.55-.4-1.29-14.8-18.77-9.84-43.65-9.62-44.7l.15-.72.45-.56c.47-.59,11.89-14.32,31.07-7.81l-1.93,5.69c-13.38-4.54-21.92,3.18-24,5.37-.66,4.11-3.11,24.17,8.58,39a7.09,7.09,0,0,1,1.39,6.9C2238.82,1221.78,2222.84,1226.43,2219.67,1227.28Z" transform="translate(-797.76 -403.05)"/><path class="cls-5" d="M2144,1124.21c24.68,26.27,96.24-6.38,114,19.71,18.9,27.83,62.13-45.28,14.57-79.7-41.36-29.94-69.46-4.21-109.31,6.3s-52.33-5.92-77,28.22-3.94,97.5,18.91,134.26c10,16.11-9.45-64.66,20-66.76S2144,1124.21,2144,1124.21Z" transform="translate(-797.76 -403.05)"/><path class="cls-3" d="M2316.85,1334.58c91.76,13.66,207.38,35.41,317,192.91s127.31,251.47,95,293.94-146.28,72-246.21-72.6-138.9-242.54-159.3-289.07S2261.69,1326.37,2316.85,1334.58Z" transform="translate(-797.76 -403.05)"/><polygon class="cls-5" points="1287.81 1434.73 1395.53 1435.24 1395.58 1062.74 1287.81 1073.33 1287.81 1434.73"/><polygon class="cls-6" points="1395.53 1435.24 1712.03 1436.42 1711.98 1067.93 1395.58 1063.46 1395.53 1435.24"/><polygon class="cls-5" points="1509.53 1435.78 1610.78 1435.94 1611.03 1382.67 1509.77 1382.5 1509.53 1435.78"/><polygon class="cls-8" points="1318.96 1434.88 1354.44 1435.05 1355.07 1137.08 1319.56 1140.88 1318.96 1434.88"/><polygon class="cls-8" points="1632.94 1140.54 1693.41 1140.83 1693.59 1103.03 1633.14 1098.02 1632.94 1140.54"/><path class="cls-3" d="M2573,1614.65c-91,.12-330.91,19.45-354,85.07s13.13,175.74,131.66,203.83,319.88-21.16,369.2-74.81S2731.89,1614.45,2573,1614.65Z" transform="translate(-797.76 -403.05)"/><path class="cls-5" d="M2322.54,1752.71c22,38.53,18.74,81.85-7.33,96.74s-65.05-4.27-87.07-42.8-18.73-81.85,7.34-96.74S2300.52,1714.18,2322.54,1752.71Z" transform="translate(-797.76 -403.05)"/><path class="cls-8" d="M2570.25,1623.29l.83-6c-99.09-13.82-260.52,28.07-262.13,28.49l1.52,5.82C2312.08,1651.22,2472.35,1609.63,2570.25,1623.29Z" transform="translate(-797.76 -403.05)"/><path class="cls-8" d="M2649.57,1875l-2.1-5.63c-121.4,45.27-230.2,37.53-231.29,37.45l-.45,6C2416.82,1912.92,2527,1920.75,2649.57,1875Z" transform="translate(-797.76 -403.05)"/><path class="cls-15" d="M2162.79,1659.8s21.4-6.12,35.86-9.15,24.39-1.13,42.9,15.37,65.44,33.65,70.87,57.46,22.08,103.15-41.51,125.73-165.66-18-131-44c0,0-41.18-12.29-13.88-44.31,0,0-35.76-31.48.88-49.33C2126.93,1711.54,2083.38,1665,2162.79,1659.8Z" transform="translate(-797.76 -403.05)"/><path class="cls-16" d="M2126.93,1711.54c9.17,1.83,18.29,1.84,27.39,1.41,9.07-.62,18.13-1.68,27-4.58-9.25-1.85-18.32-1.85-27.38-1.41C2144.9,1707.58,2135.9,1708.65,2126.93,1711.54Z" transform="translate(-797.76 -403.05)"/><path class="cls-16" d="M2126.09,1761c12.2,2.37,24.46,2.64,36.7,2.18a171,171,0,0,0,18.3-1.8,92.29,92.29,0,0,0,18-4.41c-12.38-.52-24.4-.28-36.55.22S2138.27,1758.63,2126.09,1761Z" transform="translate(-797.76 -403.05)"/><path class="cls-16" d="M2139.58,1805.53a41.12,41.12,0,0,0,11.71,5.6,60.83,60.83,0,0,0,12.68,2.57c8.58.79,17.49,0,25.48-3.64-4.37-.66-8.51-.84-12.64-1.24s-8.2-.64-12.27-1.09C2156.34,1807,2148.27,1806,2139.58,1805.53Z" transform="translate(-797.76 -403.05)"/><path class="cls-3" d="M1715.82,1534.62c-37.6,82.89-154.06,293.5-223.36,287.5s-154.71-84.37-131.47-203.95,151.08-282.74,220.28-305.58S1781.46,1390,1715.82,1534.62Z" transform="translate(-797.76 -403.05)"/><path class="cls-5" d="M1486.82,1706c-26-35.94-66.85-50.8-91.16-33.18s-22.92,61,3.12,97,66.85,50.79,91.16,33.17S1512.86,1741.92,1486.82,1706Z" transform="translate(-797.76 -403.05)"/><path class="cls-8" d="M1578.6,1762.4c1.05-1.3,105.75-131.11,134-227.1l-5.76-1.69c-27.89,94.84-131.83,223.72-132.87,225Z" transform="translate(-797.76 -403.05)"/><path class="cls-8" d="M1385,1557.14c.38-1,38.2-103.41,129.42-195.31l-4.26-4.23c-92.2,92.88-130.42,196.46-130.8,197.5Z" transform="translate(-797.76 -403.05)"/><path class="cls-15" d="M1420.55,1892.46s20.55-8.56,33.73-15.2,19.78-14.33,24-38.76,30.18-67.11,19.6-89.11S1450.8,1655,1387,1677,1268.69,1794.3,1312,1793c0,0-24.54,35.29,16.77,43.3,0,0-8.33,46.9,31.45,38C1360.26,1874.37,1355.19,1937.87,1420.55,1892.46Z" transform="translate(-797.76 -403.05)"/><path class="cls-16" d="M1360.26,1874.37c8.81-3.33,16.51-8.12,24-13.26,7.35-5.31,14.44-11,20.53-18.18-8.75,3.27-16.5,8.09-24,13.26C1373.41,1861.52,1366.28,1867.21,1360.26,1874.37Z" transform="translate(-797.76 -403.05)"/><path class="cls-16" d="M1328.77,1836.22c11-5.75,21-12.68,30.84-19.73s19.36-14.49,28.71-22.61a92,92,0,0,0-16.79,7.75,174.73,174.73,0,0,0-15.44,10C1346.25,1818.9,1336.83,1826.76,1328.77,1836.22Z" transform="translate(-797.76 -403.05)"/><path class="cls-16" d="M1311.56,1793c6.49-5.79,12.15-11.64,18.13-17.28,2.91-2.89,5.92-5.67,8.92-8.51s6.1-5.61,9.1-8.84c-8.49,2.15-16,7.08-22.19,13a61,61,0,0,0-8.3,9.92A40.91,40.91,0,0,0,1311.56,1793Z" transform="translate(-797.76 -403.05)"/><path class="cls-8" d="M2311.07,2297.38l5.73-1.81c-8.58-27.32-78.13-217.22-78.82-219.14l-5.65,2.07C2233,2080.41,2302.53,2270.19,2311.07,2297.38Z" transform="translate(-797.76 -403.05)"/><path class="cls-5" d="M2170.2,1167.6l-2.94-5.23c12.85-7.24,23.48-9.72,31.57-7.37,6.27,1.82,8.6,5.88,8.85,6.34l-5.26,2.89C2202.35,1164.12,2195.61,1153.3,2170.2,1167.6Z" transform="translate(-797.76 -403.05)"/><path class="cls-5" d="M2180.09,1182.45c-1.19,4.41.7,8.75,4.22,9.7s7.33-1.86,8.52-6.27-.7-8.76-4.22-9.71S2181.28,1178,2180.09,1182.45Z" transform="translate(-797.76 -403.05)"/><path class="cls-5" d="M2234.22,1182.45c-1.19,4.41.7,8.75,4.22,9.7s7.33-1.86,8.52-6.27-.7-8.76-4.22-9.71S2235.4,1178,2234.22,1182.45Z" transform="translate(-797.76 -403.05)"/><path class="cls-15" d="M2140.39,1189.4a28.78,28.78,0,1,1-26.26-31.09A28.77,28.77,0,0,1,2140.39,1189.4Z" transform="translate(-797.76 -403.05)"/><path class="cls-5" d="M2111.41,1208.1a19.45,19.45,0,0,1-8.85-2.68l3.06-5.16c1.37.8,4.82,2.25,6.77,1.72a1.86,1.86,0,0,0,1.19-1c.49-.92.49-.92-1-2.54-2-2.09-5-5.24-3.91-11.5a23.18,23.18,0,0,1,4.39-9.63c2.47-3.62,2.47-3.62-.14-5.45-4.87-3.43-14.23,4.75-17.12,7.89l-4.43-4.06c1.51-1.64,15-15.79,25-8.74,7.46,5.23,4,10.35,1.65,13.74-1.45,2.12-2.95,4.32-3.43,7.22-.54,3.34.67,4.63,2.35,6.41s4.47,4.75,2,9.46a7.86,7.86,0,0,1-4.9,4A9.4,9.4,0,0,1,2111.41,1208.1Z" transform="translate(-797.76 -403.05)"/><path class="cls-5" d="M2235.83,1242.15s-24.83,12.18-43.26-3.47c0,0,8.62,26.28,22.48,27.07S2235.83,1242.15,2235.83,1242.15Z" transform="translate(-797.76 -403.05)"/></g><path class="cls-3" d="M2857.6,617.9l4.5-12.68q-9.07-4.58-13.94-9.75a28.51,28.51,0,0,1-6.76-13.55q-1.91-8.37.89-18.48l13.6,2.14q-2.16,10.74-.12,16.85,2.94,8.67,10.14,12.09l14.34-40.35a56.16,56.16,0,0,1-13.83-11.74,24.77,24.77,0,0,1-6-12.68A29.61,29.61,0,0,1,2862,515q4.8-13.53,17.36-18.5,8.4-3.36,21.47-.14l2.15-6.06,7.46,2.66-2.15,6.05q10.67,5,15.23,12.71,5.85,9.85,3.26,22.5l-13.8-2.68c1-5.24.82-9.62-.61-13.11a18.31,18.31,0,0,0-7.89-8.71l-13,36.54a106.6,106.6,0,0,1,11.35,8.24,33.23,33.23,0,0,1,7.39,9.76,27,27,0,0,1,2.59,10.92,32.16,32.16,0,0,1-2,11.84q-4.68,13.17-16.19,19t-25,1.73l-4.55,12.81Zm15.77-20.73a19.91,19.91,0,0,0,14.5-2.06,21.12,21.12,0,0,0,9.66-11.88q2.44-6.9.52-12.3t-11-12.34Zm23.68-90.25a20,20,0,0,0-13.76,1.77,17.58,17.58,0,0,0-8.29,9.83,17.39,17.39,0,0,0-.23,12.13q2.07,5.65,9.81,11.34Z" transform="translate(-797.76 -403.05)"/><path class="cls-12" d="M2707.16,1236.26q-10.92-16.82-10.11-34.1t16.88-27.71q14.78-9.62,31.32-5.35t29.84,24.71q12.94,19.92,10.14,37.06t-17.16,26.45a36.39,36.39,0,0,1-30.62,4.81Q2721.09,1257.69,2707.16,1236.26Zm15.93-48.88q-7.18,4.66-7.91,14t10.05,25.92q9.83,15.09,18.64,18.13t15.89-1.57q7.29-4.72,8-14t-10-25.81q-9.89-15.21-18.7-18.23T2723.09,1187.38Zm99,152.15-21.59-221.31,15.64-10.16,21.91,221.1Zm40.22-86.75q-11-16.92-10.15-34.15t17-27.74q14.79-9.6,31.33-5.35t29.84,24.72q12.95,19.92,10.13,37a37.58,37.58,0,0,1-17.26,26.53,36.29,36.29,0,0,1-30.65,4.75Q2876.14,1274.11,2862.29,1252.78Zm16-49q-7.3,4.74-8,14t10.05,25.91q9.75,15,18.6,18.08t15.92-1.51q7.39-4.8,8.13-14.11t-10-25.81q-9.89-15.21-18.71-18.24T2878.33,1203.82Z" transform="translate(-797.76 -403.05)"/><path class="cls-12" d="M1896.66,428.91q-22,2.67-35.62,15.09-8.13,7.37-13.93,19.75-5.88,12.79-5.89,23.69l89.26-10.84-1.4,18-87.82,10.66c.13,1.84.3,3.6.5,5.25.82,6.73,1.35,10.73,1.6,12l84.28-10.24-1.54,18-77.87,9.46q9.15,29.31,31.61,39.33a62.67,62.67,0,0,0,33.68,5.06q24.48-3,36.66-17.46l3.28,27a85.68,85.68,0,0,1-35.2,12q-59.16,7.18-86-39.5a136.12,136.12,0,0,1-10.12-23.2l-20,2.43,1.53-18,13.74-1.67q-1.07-5.46-1.83-11.86c-.22-1.75-.39-3.55-.53-5.39l-17.14,2.09,1.53-18,15.18-1.84q2.94-43.65,34.84-66.38a95.93,95.93,0,0,1,45-17.17q24.35-3,42.26,5.63l-2.28,25A55.73,55.73,0,0,0,1896.66,428.91Z" transform="translate(-797.76 -403.05)"/><rect class="cls-5" x="70.35" y="2051.83" width="2313.27" height="11.23"/><path class="cls-3" d="M852,997.56l.67.66,53.78-55.51L833,924.2,831.77,928A73.23,73.23,0,0,0,852,997.56Z" transform="translate(-797.76 -403.05)"/><path class="cls-12" d="M1003,527.91a12.24,12.24,0,1,1-8-15.36A12.24,12.24,0,0,1,1003,527.91Z" transform="translate(-797.76 -403.05)"/><path class="cls-3" d="M1571.52,660.57a12.24,12.24,0,1,1-8-15.37A12.23,12.23,0,0,1,1571.52,660.57Z" transform="translate(-797.76 -403.05)"/><path class="cls-6" d="M2319.23,623.9a12.8,12.8,0,1,1,6.9,16.73A12.8,12.8,0,0,1,2319.23,623.9Z" transform="translate(-797.76 -403.05)"/><path class="cls-3" d="M2594.82,520.4a9.94,9.94,0,1,1,5.36,13A9.94,9.94,0,0,1,2594.82,520.4Z" transform="translate(-797.76 -403.05)"/><path class="cls-6" d="M3092.32,1401.08a9.95,9.95,0,1,1,5.38,13A10,10,0,0,1,3092.32,1401.08Z" transform="translate(-797.76 -403.05)"/><path class="cls-6" d="M2642.23,854.68a19.89,19.89,0,1,1,10.73,26A19.89,19.89,0,0,1,2642.23,854.68Z" transform="translate(-797.76 -403.05)"/></svg>