<svg width="538" height="220" viewBox="0 0 538 220" fill="none" xmlns="http://www.w3.org/2000/svg">
<path d="M22.9166 87.0833H197.083V174.167H22.9166V87.0833Z" fill="#CFD8DC"/>
<path d="M22.9166 174.167H197.083V192.5H22.9166V174.167Z" fill="#B0BEC5"/>
<path d="M123.75 110H178.75V192.5H123.75V110Z" fill="#455A64"/>
<path d="M41.25 110H105.417V160.417H41.25V110Z" fill="#E3F2FD"/>
<path d="M45.8334 114.583H100.833V155.833H45.8334V114.583Z" fill="#3D59BD"/>
<path d="M167.292 153.542C165.917 153.542 165 154.458 165 155.833V165C165 166.375 165.917 167.292 167.292 167.292C168.667 167.292 169.583 166.375 169.583 165V155.833C169.583 154.458 168.667 153.542 167.292 153.542Z" fill="#90A4AE"/>
<path d="M110 100.833C117.594 100.833 123.75 94.6772 123.75 87.0833C123.75 79.4893 117.594 73.3333 110 73.3333C102.406 73.3333 96.25 79.4893 96.25 87.0833C96.25 94.6772 102.406 100.833 110 100.833Z" fill="#3D59BD"/>
<path d="M165 100.833C172.594 100.833 178.75 94.6772 178.75 87.0833C178.75 79.4893 172.594 73.3333 165 73.3333C157.406 73.3333 151.25 79.4893 151.25 87.0833C151.25 94.6772 157.406 100.833 165 100.833Z" fill="#3D59BD"/>
<path d="M55 100.833C62.5939 100.833 68.75 94.6772 68.75 87.0833C68.75 79.4893 62.5939 73.3333 55 73.3333C47.4061 73.3333 41.25 79.4893 41.25 87.0833C41.25 94.6772 47.4061 100.833 55 100.833Z" fill="#3D59BD"/>
<path d="M183.333 27.5H36.6667C31.625 27.5 27.5 31.625 27.5 36.6667V50.4167H192.5V36.6667C192.5 31.625 188.375 27.5 183.333 27.5ZM96.25 50.4167H123.75V87.0833H96.25V50.4167ZM169.583 50.4167H146.667L151.25 87.0833H178.75L169.583 50.4167ZM50.4167 50.4167H73.3333L68.75 87.0833H41.25L50.4167 50.4167Z" fill="#3D59BD"/>
<path d="M137.5 100.833C145.094 100.833 151.25 94.6772 151.25 87.0833C151.25 79.4893 145.094 73.3333 137.5 73.3333C129.906 73.3333 123.75 79.4893 123.75 87.0833C123.75 94.6772 129.906 100.833 137.5 100.833Z" fill="#FFA000"/>
<path d="M206.25 87.0833C206.25 94.8749 200.292 100.833 192.5 100.833C184.708 100.833 178.75 94.8749 178.75 87.0833C178.75 79.2916 184.708 73.3333 192.5 73.3333L206.25 87.0833Z" fill="#FFA000"/>
<path d="M82.5 100.833C90.0939 100.833 96.25 94.6772 96.25 87.0833C96.25 79.4893 90.0939 73.3333 82.5 73.3333C74.9061 73.3333 68.75 79.4893 68.75 87.0833C68.75 94.6772 74.9061 100.833 82.5 100.833Z" fill="#FFA000"/>
<path d="M13.75 87.0833C13.75 94.8749 19.7083 100.833 27.5 100.833C35.2917 100.833 41.25 94.8749 41.25 87.0833C41.25 79.2916 35.2917 73.3333 27.5 73.3333L13.75 87.0833Z" fill="#FFA000"/>
<path d="M146.667 50.4167H123.75V87.0834H151.25L146.667 50.4167ZM192.5 50.4167H169.583L178.75 87.0834H206.25L192.5 50.4167ZM73.3333 50.4167H96.25V87.0834H68.75L73.3333 50.4167ZM27.5 50.4167H50.4167L41.25 87.0834H13.75L27.5 50.4167Z" fill="#FFC107"/>
<path d="M284.031 130.188V142H247.703V130.188H284.031ZM252.906 73.75V142H237.625V73.75H252.906ZM279.344 101.219V112.656H247.703V101.219H279.344ZM284.078 73.75V85.6094H247.703V73.75H284.078ZM319.469 106.938V118.375H292.188V106.938H319.469ZM358.281 127.891C358.281 126.953 357.984 126.125 357.391 125.406C356.828 124.688 355.797 124.031 354.297 123.438C352.828 122.844 350.75 122.25 348.062 121.656C345.531 121.125 343.172 120.438 340.984 119.594C338.797 118.719 336.891 117.672 335.266 116.453C333.641 115.203 332.375 113.734 331.469 112.047C330.562 110.328 330.109 108.375 330.109 106.188C330.109 104.062 330.562 102.047 331.469 100.141C332.406 98.2344 333.75 96.5469 335.5 95.0781C337.281 93.6094 339.438 92.4531 341.969 91.6094C344.531 90.7656 347.438 90.3438 350.688 90.3438C355.156 90.3438 359.016 91.0469 362.266 92.4531C365.516 93.8281 368.016 95.7656 369.766 98.2656C371.516 100.734 372.391 103.562 372.391 106.75H357.766C357.766 105.438 357.516 104.297 357.016 103.328C356.516 102.359 355.75 101.609 354.719 101.078C353.688 100.516 352.328 100.234 350.641 100.234C349.328 100.234 348.172 100.469 347.172 100.938C346.203 101.375 345.438 101.984 344.875 102.766C344.344 103.547 344.078 104.453 344.078 105.484C344.078 106.203 344.234 106.859 344.547 107.453C344.891 108.016 345.406 108.547 346.094 109.047C346.812 109.516 347.734 109.938 348.859 110.312C350.016 110.688 351.422 111.047 353.078 111.391C356.609 112.047 359.828 112.969 362.734 114.156C365.672 115.344 368.016 116.984 369.766 119.078C371.547 121.172 372.438 123.938 372.438 127.375C372.438 129.625 371.922 131.688 370.891 133.562C369.891 135.438 368.438 137.078 366.531 138.484C364.625 139.891 362.344 140.984 359.688 141.766C357.031 142.547 354.031 142.938 350.688 142.938C345.906 142.938 341.859 142.078 338.547 140.359C335.234 138.641 332.734 136.484 331.047 133.891C329.391 131.266 328.562 128.578 328.562 125.828H342.297C342.359 127.516 342.781 128.891 343.562 129.953C344.375 131.016 345.422 131.797 346.703 132.297C347.984 132.766 349.422 133 351.016 133C352.609 133 353.938 132.781 355 132.344C356.062 131.906 356.875 131.312 357.438 130.562C358 129.781 358.281 128.891 358.281 127.891ZM394.891 70V142H380.266V70H394.891ZM392.969 114.859L389.312 114.953C389.312 111.391 389.75 108.125 390.625 105.156C391.531 102.156 392.812 99.5469 394.469 97.3281C396.125 95.1094 398.109 93.3906 400.422 92.1719C402.766 90.9531 405.344 90.3438 408.156 90.3438C410.656 90.3438 412.938 90.7031 415 91.4219C417.062 92.1406 418.844 93.2812 420.344 94.8438C421.844 96.4062 423 98.4531 423.812 100.984C424.625 103.516 425.031 106.594 425.031 110.219V142H410.312V110.125C410.312 107.969 410 106.281 409.375 105.062C408.781 103.844 407.906 102.984 406.75 102.484C405.625 101.984 404.25 101.734 402.625 101.734C400.719 101.734 399.141 102.078 397.891 102.766C396.641 103.422 395.656 104.344 394.938 105.531C394.219 106.719 393.703 108.109 393.391 109.703C393.109 111.297 392.969 113.016 392.969 114.859ZM432.484 117.156V116.172C432.484 112.453 433.016 109.031 434.078 105.906C435.141 102.75 436.703 100.016 438.766 97.7031C440.828 95.3906 443.359 93.5938 446.359 92.3125C449.359 91 452.797 90.3438 456.672 90.3438C460.609 90.3438 464.078 91 467.078 92.3125C470.109 93.5938 472.656 95.3906 474.719 97.7031C476.781 100.016 478.344 102.75 479.406 105.906C480.469 109.031 481 112.453 481 116.172V117.156C481 120.844 480.469 124.266 479.406 127.422C478.344 130.547 476.781 133.281 474.719 135.625C472.656 137.938 470.125 139.734 467.125 141.016C464.125 142.297 460.672 142.938 456.766 142.938C452.891 142.938 449.438 142.297 446.406 141.016C443.375 139.734 440.828 137.938 438.766 135.625C436.703 133.281 435.141 130.547 434.078 127.422C433.016 124.266 432.484 120.844 432.484 117.156ZM447.156 116.172V117.156C447.156 119.156 447.312 121.031 447.625 122.781C447.969 124.531 448.516 126.062 449.266 127.375C450.016 128.688 451 129.719 452.219 130.469C453.469 131.188 454.984 131.547 456.766 131.547C458.547 131.547 460.047 131.188 461.266 130.469C462.484 129.719 463.469 128.688 464.219 127.375C464.969 126.062 465.5 124.531 465.812 122.781C466.156 121.031 466.328 119.156 466.328 117.156V116.172C466.328 114.203 466.156 112.359 465.812 110.641C465.5 108.891 464.969 107.344 464.219 106C463.469 104.656 462.469 103.609 461.219 102.859C460 102.109 458.484 101.734 456.672 101.734C454.922 101.734 453.438 102.109 452.219 102.859C451 103.609 450.016 104.656 449.266 106C448.516 107.344 447.969 108.891 447.625 110.641C447.312 112.359 447.156 114.203 447.156 116.172ZM503.359 101.031V161.5H488.734V91.2812H502.375L503.359 101.031ZM535 116.078V117.062C535 120.75 534.578 124.172 533.734 127.328C532.891 130.453 531.625 133.188 529.938 135.531C528.281 137.875 526.234 139.703 523.797 141.016C521.359 142.297 518.531 142.938 515.312 142.938C512.25 142.938 509.594 142.297 507.344 141.016C505.125 139.703 503.25 137.891 501.719 135.578C500.219 133.234 499 130.562 498.062 127.562C497.156 124.531 496.453 121.297 495.953 117.859V115.938C496.453 112.281 497.172 108.891 498.109 105.766C499.047 102.641 500.266 99.9375 501.766 97.6562C503.266 95.3438 505.125 93.5469 507.344 92.2656C509.562 90.9844 512.203 90.3438 515.266 90.3438C518.453 90.3438 521.281 90.9531 523.75 92.1719C526.219 93.3906 528.281 95.1406 529.938 97.4219C531.625 99.6719 532.891 102.375 533.734 105.531C534.578 108.688 535 112.203 535 116.078ZM520.328 117.062V116.078C520.328 114.016 520.172 112.125 519.859 110.406C519.547 108.656 519.047 107.141 518.359 105.859C517.672 104.547 516.766 103.531 515.641 102.812C514.516 102.094 513.141 101.734 511.516 101.734C509.766 101.734 508.281 102.016 507.062 102.578C505.844 103.141 504.859 103.969 504.109 105.062C503.359 106.125 502.812 107.438 502.469 109C502.156 110.562 501.984 112.344 501.953 114.344V119.5C501.984 121.844 502.312 123.938 502.938 125.781C503.594 127.594 504.609 129.016 505.984 130.047C507.391 131.047 509.266 131.547 511.609 131.547C513.266 131.547 514.641 131.188 515.734 130.469C516.859 129.719 517.75 128.672 518.406 127.328C519.094 125.984 519.578 124.438 519.859 122.688C520.172 120.938 520.328 119.062 520.328 117.062Z" fill="#3D59BD"/>
</svg>
